<?xml version="1.0" encoding="utf-8"?>
<!-- Generator: Adobe Illustrator 20.1.0, SVG Export Plug-In . SVG Version: 6.00 Build 0)  -->
<svg version="1.1" id="Layer_1" xmlns="http://www.w3.org/2000/svg" xmlns:xlink="http://www.w3.org/1999/xlink" x="0px" y="0px"
	 viewBox="0 0 600 600" style="enable-background:new 0 0 600 600;" xml:space="preserve">
<style type="text/css">
	.st0{fill:#E6E7E8;}
	.st1{fill:none;stroke:#000000;stroke-linecap:round;stroke-miterlimit:10;}
</style>
<g id="XMLID_1_">
	<g>
		<path class="st0" d="M494.2,213.6C546,224,585,269.7,585,324.5c0,62.5-50.7,113.2-113.2,113.2c-35,0-66.3-15.9-87.1-40.9
			c27.9-8.6,51.2-27.8,65.2-52.9c31.9-16.6,53.6-49.9,53.6-88.3C503.5,240.6,500.2,226.4,494.2,213.6z"/>
		<path class="st0" d="M494.2,213.6c6,12.8,9.3,27.1,9.3,42.1c0,38.4-21.8,71.7-53.6,88.3c9.1-16.2,14.2-34.9,14.2-54.9
			c0-27.6-9.9-52.9-26.4-72.5c10.7-3.4,22.2-5.2,34.1-5.2C479.5,211.4,487,212.1,494.2,213.6z"/>
		<path class="st0" d="M404.1,156.2c39.9,0,74.3,23.5,90.1,57.3c-7.2-1.5-14.7-2.2-22.4-2.2c-11.9,0-23.3,1.8-34.1,5.2
			c-20.7-24.6-51.7-40.3-86.4-40.3c-2.5,0-5,0.1-7.5,0.3C360.6,163.8,381.5,156.2,404.1,156.2z"/>
		<path class="st0" d="M464.2,289.1c0,19.9-5.2,38.6-14.2,54.9c-13.7,7.1-29.3,11.2-45.8,11.2c-15.6,0-30.4-3.6-43.6-10
			c-1.2-6.7-1.9-13.5-1.9-20.6c0-50.6,33.3-93.5,79.1-108C454.2,236.2,464.2,261.5,464.2,289.1z"/>
		<path class="st0" d="M351.4,176.3c34.7,0,65.7,15.7,86.4,40.3c-45.9,14.4-79.1,57.3-79.1,108c0,7,0.6,13.9,1.9,20.6
			c-22.1-10.8-39.6-29.5-48.8-52.5c28.3-9.5,48.8-36.2,48.8-67.8c0-18.2-6.8-34.7-17.9-47.3c0.4-0.3,0.9-0.7,1.3-1
			C346.4,176.4,348.9,176.3,351.4,176.3z"/>
		<path class="st0" d="M449.9,344c-14,25.1-37.2,44.3-65.2,52.9c-12.2-14.6-20.7-32.3-24.3-51.8c13.2,6.4,27.9,10,43.6,10
			C420.6,355.1,436.2,351.1,449.9,344z"/>
		<path class="st0" d="M360.5,345.1c3.6,19.4,12.1,37.2,24.3,51.8c-10.6,3.3-21.8,5-33.4,5c-27.3,0-52.4-9.7-71.9-25.9
			c3-9.4,4.6-19.3,4.6-29.7c0-9.1-1.3-18-3.6-26.4c4.5-7.3,8-15.3,10.3-23.7c7.3-0.2,14.3-1.4,20.9-3.6
			C320.9,315.6,338.4,334.3,360.5,345.1z"/>
		<path class="st0" d="M342.6,177.6c11.2,12.6,17.9,29.2,17.9,47.3c0,31.5-20.4,58.3-48.8,67.8c-4.6-11.4-7.1-23.9-7.1-36.9
			C304.6,224,319.5,195.8,342.6,177.6z"/>
		<path class="st0" d="M343.9,176.6c-0.4,0.3-0.9,0.7-1.3,1c-0.2-0.3-0.5-0.6-0.8-0.9C342.5,176.6,343.2,176.6,343.9,176.6z"/>
		<path class="st0" d="M341.8,176.7c0.3,0.3,0.5,0.6,0.8,0.9c-23.1,18.2-37.9,46.4-37.9,78.1c0,13,2.5,25.5,7.1,36.9
			c-6.6,2.2-13.6,3.5-20.9,3.6c2.2-7.9,3.4-16.3,3.4-24.9c0-23.5-8.7-45-23.1-61.4C289.4,191.3,314.2,179,341.8,176.7z"/>
		<path class="st0" d="M289.1,153.5c20.9,0,39.6,8.9,52.7,23.2c-27.6,2.3-52.4,14.6-70.7,33.2c-10.6-12.1-24.3-21.5-39.9-26.8
			C244.1,165.1,265.2,153.5,289.1,153.5z"/>
		<path class="st0" d="M294.2,271.3c0,8.6-1.2,17-3.4,24.9c-0.6,0-1.1,0-1.7,0c-7.3,0-14.3-1.1-20.9-3.1
			c-7.1-10.9-16.4-20.2-27.2-27.4c4.5-21.5,15.2-40.8,30.1-55.9C285.5,226.3,294.2,247.8,294.2,271.3z"/>
		<path class="st0" d="M289.1,296.3c0.6,0,1.1,0,1.7,0c-2.3,8.5-5.8,16.4-10.3,23.7c-2.7-9.6-6.9-18.6-12.3-26.8
			C274.8,295.2,281.8,296.3,289.1,296.3z"/>
		<path class="st0" d="M280.5,320c2.4,8.4,3.6,17.2,3.6,26.4c0,10.4-1.6,20.3-4.6,29.7c-9.7-8.1-18.1-17.7-24.7-28.6
			C265.1,340.1,273.9,330.8,280.5,320z"/>
		<path class="st0" d="M254.8,347.5c6.6,10.9,14.9,20.5,24.7,28.6c-12.5,39-49.1,67.2-92.2,67.2c-53.5,0-96.9-43.4-96.9-96.9
			c0-21.5,7-41.4,18.9-57.5c8.2,43.1,46.1,75.7,91.6,75.7C221,364.6,239.6,358.2,254.8,347.5z"/>
		<path class="st0" d="M268.2,293.2c5.4,8.2,9.5,17.2,12.3,26.8c-6.6,10.8-15.4,20.1-25.7,27.5c-10.3-17-16.2-37-16.2-58.4
			c0-4.4,0.2-8.8,0.8-13C247.4,283.9,257.2,289.8,268.2,293.2z"/>
		<path class="st0" d="M231.2,183.1c15.6,5.3,29.3,14.7,39.9,26.8c-14.9,15.1-25.6,34.3-30.1,55.9c-4.9-3.3-10.1-6.1-15.5-8.4
			c-5-9.7-7.8-20.8-7.8-32.5C217.7,209.3,222.7,194.8,231.2,183.1z"/>
		<path class="st0" d="M241,265.8c10.8,7.2,20.1,16.6,27.2,27.4c-11-3.4-20.9-9.3-28.9-17.1C239.7,272.6,240.3,269.1,241,265.8z"/>
		<path class="st0" d="M241,265.8c-0.7,3.4-1.3,6.8-1.7,10.3c-5.6-5.4-10.3-11.7-13.8-18.7C230.9,259.7,236.1,262.5,241,265.8z"/>
		<path class="st0" d="M225.5,257.3c3.6,7,8.3,13.3,13.8,18.7c-0.5,4.3-0.8,8.6-0.8,13c0,21.4,5.9,41.3,16.2,58.4
			c-15.2,10.8-33.8,17.1-53.9,17.1c-45.5,0-83.4-32.6-91.6-75.7c17.6-23.9,46-39.4,78-39.4C200.8,249.5,213.8,252.3,225.5,257.3z"/>
		<path class="st0" d="M231.2,183.1c-8.5,11.8-13.5,26.2-13.5,41.8c0,11.7,2.8,22.7,7.8,32.5c-11.7-5-24.6-7.8-38.2-7.8
			c-32,0-60.3,15.5-78,39.4c-1.1-5.7-1.7-11.6-1.7-17.6c0-51.5,41.8-93.3,93.3-93.3C211.5,178.1,221.7,179.8,231.2,183.1z"/>
	</g>
	<g>
		<path class="st1" d="M109.3,288.9c-1.1-5.7-1.7-11.6-1.7-17.6c0-51.5,41.8-93.3,93.3-93.3c10.6,0,20.8,1.8,30.3,5"/>
		<path class="st1" d="M225.5,257.3c-5-9.7-7.8-20.8-7.8-32.5c0-15.6,5-30,13.5-41.8c13-17.9,34.1-29.6,57.9-29.6
			c20.9,0,39.6,8.9,52.7,23.2c0.3,0.3,0.5,0.6,0.8,0.9"/>
		<path class="st1" d="M343.9,176.6c16.7-12.8,37.6-20.3,60.2-20.3c39.9,0,74.3,23.5,90.1,57.3"/>
		<path class="st1" d="M384.8,396.9c-10.6,3.3-21.8,5-33.4,5c-27.3,0-52.4-9.7-71.9-25.9"/>
		<path class="st1" d="M343.9,176.6c2.5-0.2,5-0.3,7.5-0.3c34.7,0,65.7,15.7,86.4,40.3"/>
		<path class="st1" d="M437.8,216.6c10.7-3.4,22.2-5.2,34.1-5.2c7.7,0,15.1,0.8,22.4,2.2C546,224,585,269.7,585,324.5
			c0,62.5-50.7,113.2-113.2,113.2c-35,0-66.3-15.9-87.1-40.9"/>
		<path class="st1" d="M279.5,376c-12.5,39-49.1,67.2-92.2,67.2c-53.5,0-96.9-43.4-96.9-96.9c0-21.5,7-41.4,18.9-57.5
			c17.6-23.9,46-39.4,78-39.4c13.6,0,26.5,2.8,38.2,7.8"/>
	</g>
</g>
</svg>
